# 3ds Max Wavefront OBJ Exporter v0.97b - (c)2007 guruware
# File Created: 17.09.2016 11:51:57

#
# object Box001
#

v  -0.3900 0.0000 -0.3900
v  0.3900 0.0000 -0.3900
v  0.3900 0.0000 0.3900
v  -0.3900 0.0000 0.3900
v  0.3900 1.0000 0.3900
v  0.3900 1.0000 -0.3900
v  -0.3900 1.0000 -0.3900
v  -0.3900 1.0000 0.3900
v  0.3900 0.1100 0.5000
v  0.3900 0.8900 0.5000
v  -0.3900 0.8900 0.5000
v  -0.3900 0.1100 0.5000
v  0.5000 0.1100 -0.3900
v  0.5000 0.8900 -0.3900
v  0.5000 0.8900 0.3900
v  0.5000 0.1100 0.3900
v  -0.3900 0.1100 -0.5000
v  -0.3900 0.8900 -0.5000
v  0.3900 0.8900 -0.5000
v  0.3900 0.1100 -0.5000
v  -0.5000 0.1100 0.3900
v  -0.5000 0.8900 0.3900
v  -0.5000 0.8900 -0.3900
v  -0.5000 0.1100 -0.3900
v  -0.3900 0.0067 0.4383
v  -0.4349 0.0135 0.4349
v  -0.4383 0.0067 0.3900
v  -0.4697 0.0303 0.4282
v  -0.4730 0.0270 0.3900
v  -0.3900 0.0270 0.4730
v  -0.4282 0.0303 0.4697
v  -0.4596 0.0404 0.4596
v  -0.4383 0.0067 -0.3900
v  -0.4349 0.0135 -0.4349
v  -0.3900 0.0067 -0.4383
v  -0.4282 0.0303 -0.4697
v  -0.3900 0.0270 -0.4730
v  -0.4730 0.0270 -0.3900
v  -0.4697 0.0303 -0.4282
v  -0.4596 0.0404 -0.4596
v  0.3900 0.0067 -0.4383
v  0.4349 0.0135 -0.4349
v  0.4383 0.0067 -0.3900
v  0.4697 0.0303 -0.4282
v  0.4730 0.0270 -0.3900
v  0.3900 0.0270 -0.4730
v  0.4282 0.0303 -0.4697
v  0.4596 0.0404 -0.4596
v  0.4383 0.0067 0.3900
v  0.4349 0.0135 0.4349
v  0.3900 0.0067 0.4383
v  0.4282 0.0303 0.4697
v  0.3900 0.0270 0.4730
v  0.4730 0.0270 0.3900
v  0.4697 0.0303 0.4282
v  0.4596 0.0404 0.4596
v  -0.4383 0.9933 0.3900
v  -0.4349 0.9865 0.4349
v  -0.3900 0.9933 0.4383
v  -0.4282 0.9697 0.4697
v  -0.3900 0.9730 0.4730
v  -0.4730 0.9730 0.3900
v  -0.4697 0.9697 0.4282
v  -0.4596 0.9596 0.4596
v  0.3900 0.9933 0.4383
v  0.4349 0.9865 0.4349
v  0.4383 0.9933 0.3900
v  0.4697 0.9697 0.4282
v  0.4730 0.9730 0.3900
v  0.3900 0.9730 0.4730
v  0.4282 0.9697 0.4697
v  0.4596 0.9596 0.4596
v  0.4383 0.9933 -0.3900
v  0.4349 0.9865 -0.4349
v  0.3900 0.9933 -0.4383
v  0.4282 0.9697 -0.4697
v  0.3900 0.9730 -0.4730
v  0.4730 0.9730 -0.3900
v  0.4697 0.9697 -0.4282
v  0.4596 0.9596 -0.4596
v  -0.3900 0.9933 -0.4383
v  -0.4349 0.9865 -0.4349
v  -0.4383 0.9933 -0.3900
v  -0.4697 0.9697 -0.4282
v  -0.4730 0.9730 -0.3900
v  -0.3900 0.9730 -0.4730
v  -0.4282 0.9697 -0.4697
v  -0.4596 0.9596 -0.4596
v  -0.4383 0.1100 0.4933
v  -0.4349 0.0651 0.4865
v  -0.3900 0.0617 0.4933
v  -0.4730 0.1100 0.4730
v  -0.4697 0.0718 0.4697
v  0.3900 0.0617 0.4933
v  0.4349 0.0651 0.4865
v  0.4383 0.1100 0.4933
v  0.4697 0.0718 0.4697
v  0.4730 0.1100 0.4730
v  0.4383 0.8900 0.4933
v  0.4349 0.9349 0.4865
v  0.3900 0.9383 0.4933
v  0.4730 0.8900 0.4730
v  0.4697 0.9282 0.4697
v  -0.3900 0.9383 0.4933
v  -0.4349 0.9349 0.4865
v  -0.4383 0.8900 0.4933
v  -0.4697 0.9282 0.4697
v  -0.4730 0.8900 0.4730
v  0.4933 0.1100 0.4383
v  0.4865 0.0651 0.4349
v  0.4933 0.0617 0.3900
v  0.4933 0.0617 -0.3900
v  0.4865 0.0651 -0.4349
v  0.4933 0.1100 -0.4383
v  0.4697 0.0718 -0.4697
v  0.4730 0.1100 -0.4730
v  0.4933 0.8900 -0.4383
v  0.4865 0.9349 -0.4349
v  0.4933 0.9383 -0.3900
v  0.4730 0.8900 -0.4730
v  0.4697 0.9282 -0.4697
v  0.4933 0.9383 0.3900
v  0.4865 0.9349 0.4349
v  0.4933 0.8900 0.4383
v  0.4383 0.1100 -0.4933
v  0.4349 0.0651 -0.4865
v  0.3900 0.0617 -0.4933
v  -0.3900 0.0617 -0.4933
v  -0.4349 0.0651 -0.4865
v  -0.4383 0.1100 -0.4933
v  -0.4697 0.0718 -0.4697
v  -0.4730 0.1100 -0.4730
v  -0.4383 0.8900 -0.4933
v  -0.4349 0.9349 -0.4865
v  -0.3900 0.9383 -0.4933
v  -0.4730 0.8900 -0.4730
v  -0.4697 0.9282 -0.4697
v  0.3900 0.9383 -0.4933
v  0.4349 0.9349 -0.4865
v  0.4383 0.8900 -0.4933
v  -0.4933 0.1100 -0.4383
v  -0.4865 0.0651 -0.4349
v  -0.4933 0.0617 -0.3900
v  -0.4933 0.0617 0.3900
v  -0.4865 0.0651 0.4349
v  -0.4933 0.1100 0.4383
v  -0.4933 0.8900 0.4383
v  -0.4865 0.9349 0.4349
v  -0.4933 0.9383 0.3900
v  -0.4933 0.9383 -0.3900
v  -0.4865 0.9349 -0.4349
v  -0.4933 0.8900 -0.4383
# 152 vertices

vn -0.0714 -0.9949 -0.0714
vn 0.0714 -0.9949 -0.0714
vn 0.0714 -0.9949 0.0714
vn -0.0714 -0.9949 0.0714
vn 0.0714 0.9949 0.0714
vn 0.0714 0.9949 -0.0714
vn -0.0714 0.9949 -0.0714
vn -0.0714 0.9949 0.0714
vn 0.0714 -0.0714 0.9949
vn 0.0714 0.0714 0.9949
vn -0.0714 0.0714 0.9949
vn -0.0714 -0.0714 0.9949
vn 0.9949 -0.0714 -0.0714
vn 0.9949 0.0714 -0.0714
vn 0.9949 0.0714 0.0714
vn 0.9949 -0.0714 0.0714
vn -0.0714 -0.0714 -0.9949
vn -0.0714 0.0714 -0.9949
vn 0.0714 0.0714 -0.9949
vn 0.0714 -0.0714 -0.9949
vn -0.9949 -0.0714 0.0714
vn -0.9949 0.0714 0.0714
vn -0.9949 0.0714 -0.0714
vn -0.9949 -0.0714 -0.0714
vn -0.0757 -0.9439 0.3214
vn -0.3061 -0.9015 0.3061
vn -0.3214 -0.9439 0.0757
vn -0.6821 -0.6821 0.2636
vn -0.7058 -0.7058 0.0615
vn -0.0615 -0.7058 0.7058
vn -0.2636 -0.6821 0.6821
vn -0.5774 -0.5774 0.5774
vn -0.3214 -0.9439 -0.0757
vn -0.3061 -0.9015 -0.3061
vn -0.0757 -0.9439 -0.3214
vn -0.2636 -0.6821 -0.6821
vn -0.0615 -0.7058 -0.7058
vn -0.7058 -0.7058 -0.0615
vn -0.6821 -0.6821 -0.2636
vn -0.5774 -0.5774 -0.5774
vn 0.0757 -0.9439 -0.3214
vn 0.3061 -0.9015 -0.3061
vn 0.3214 -0.9439 -0.0757
vn 0.6821 -0.6821 -0.2636
vn 0.7058 -0.7058 -0.0615
vn 0.0615 -0.7058 -0.7058
vn 0.2636 -0.6821 -0.6821
vn 0.5774 -0.5774 -0.5774
vn 0.3214 -0.9439 0.0757
vn 0.3061 -0.9015 0.3061
vn 0.0757 -0.9439 0.3214
vn 0.2636 -0.6821 0.6821
vn 0.0615 -0.7058 0.7058
vn 0.7058 -0.7058 0.0615
vn 0.6821 -0.6821 0.2636
vn 0.5774 -0.5774 0.5774
vn -0.3214 0.9439 0.0757
vn -0.3061 0.9015 0.3061
vn -0.0757 0.9439 0.3214
vn -0.2636 0.6821 0.6821
vn -0.0615 0.7058 0.7058
vn -0.7058 0.7058 0.0615
vn -0.6821 0.6821 0.2636
vn -0.5774 0.5774 0.5774
vn 0.0757 0.9439 0.3214
vn 0.3061 0.9015 0.3061
vn 0.3214 0.9439 0.0757
vn 0.6821 0.6821 0.2636
vn 0.7058 0.7058 0.0615
vn 0.0615 0.7058 0.7058
vn 0.2636 0.6821 0.6821
vn 0.5774 0.5774 0.5774
vn 0.3214 0.9439 -0.0757
vn 0.3061 0.9015 -0.3061
vn 0.0757 0.9439 -0.3214
vn 0.2636 0.6821 -0.6821
vn 0.0615 0.7058 -0.7058
vn 0.7058 0.7058 -0.0615
vn 0.6821 0.6821 -0.2636
vn 0.5774 0.5774 -0.5774
vn -0.0757 0.9439 -0.3214
vn -0.3061 0.9015 -0.3061
vn -0.3214 0.9439 -0.0757
vn -0.6821 0.6821 -0.2636
vn -0.7058 0.7058 -0.0615
vn -0.0615 0.7058 -0.7058
vn -0.2636 0.6821 -0.6821
vn -0.5774 0.5774 -0.5774
vn -0.3214 -0.0757 0.9439
vn -0.3061 -0.3061 0.9015
vn -0.0757 -0.3214 0.9439
vn -0.7058 -0.0615 0.7058
vn -0.6821 -0.2636 0.6821
vn 0.0757 -0.3214 0.9439
vn 0.3061 -0.3061 0.9015
vn 0.3214 -0.0757 0.9439
vn 0.6821 -0.2636 0.6821
vn 0.7058 -0.0615 0.7058
vn 0.3214 0.0757 0.9439
vn 0.3061 0.3061 0.9015
vn 0.0757 0.3214 0.9439
vn 0.7058 0.0615 0.7058
vn 0.6821 0.2636 0.6821
vn -0.0757 0.3214 0.9439
vn -0.3061 0.3061 0.9015
vn -0.3214 0.0757 0.9439
vn -0.6821 0.2636 0.6821
vn -0.7058 0.0615 0.7058
vn 0.9439 -0.0757 0.3214
vn 0.9015 -0.3061 0.3061
vn 0.9439 -0.3214 0.0757
vn 0.9439 -0.3214 -0.0757
vn 0.9015 -0.3061 -0.3061
vn 0.9439 -0.0757 -0.3214
vn 0.6821 -0.2636 -0.6821
vn 0.7058 -0.0615 -0.7058
vn 0.9439 0.0757 -0.3214
vn 0.9015 0.3061 -0.3061
vn 0.9439 0.3214 -0.0757
vn 0.7058 0.0615 -0.7058
vn 0.6821 0.2636 -0.6821
vn 0.9439 0.3214 0.0757
vn 0.9015 0.3061 0.3061
vn 0.9439 0.0757 0.3214
vn 0.3214 -0.0757 -0.9439
vn 0.3061 -0.3061 -0.9015
vn 0.0757 -0.3214 -0.9439
vn -0.0757 -0.3214 -0.9439
vn -0.3061 -0.3061 -0.9015
vn -0.3214 -0.0757 -0.9439
vn -0.6821 -0.2636 -0.6821
vn -0.7058 -0.0615 -0.7058
vn -0.3214 0.0757 -0.9439
vn -0.3061 0.3061 -0.9015
vn -0.0757 0.3214 -0.9439
vn -0.7058 0.0615 -0.7058
vn -0.6821 0.2636 -0.6821
vn 0.0757 0.3214 -0.9439
vn 0.3061 0.3061 -0.9015
vn 0.3214 0.0757 -0.9439
vn -0.9439 -0.0757 -0.3214
vn -0.9015 -0.3061 -0.3061
vn -0.9439 -0.3214 -0.0757
vn -0.9439 -0.3214 0.0757
vn -0.9015 -0.3061 0.3061
vn -0.9439 -0.0757 0.3214
vn -0.9439 0.0757 0.3214
vn -0.9015 0.3061 0.3061
vn -0.9439 0.3214 0.0757
vn -0.9439 0.3214 -0.0757
vn -0.9015 0.3061 -0.3061
vn -0.9439 0.0757 -0.3214
# 152 vertex normals

vt 0.8900 0.8900 0.0000
vt 0.1100 0.8900 0.0000
vt 0.1100 0.1100 0.0000
vt 0.8900 0.1100 0.0000
vt 0.8900 0.0550 0.0000
vt 0.9450 0.0550 0.0000
vt 0.9450 0.1100 0.0000
vt 1.0000 0.0550 0.0000
vt 1.0000 0.1100 0.0000
vt 0.8900 0.0000 0.0000
vt 0.9450 0.0000 0.0000
vt 1.0000 0.0000 0.0000
vt 0.9450 0.8900 0.0000
vt 0.9450 0.9450 0.0000
vt 0.8900 0.9450 0.0000
vt 0.9450 1.0000 0.0000
vt 0.8900 1.0000 0.0000
vt 1.0000 0.8900 0.0000
vt 1.0000 0.9450 0.0000
vt 1.0000 1.0000 0.0000
vt 0.1100 0.9450 0.0000
vt 0.0550 0.9450 0.0000
vt 0.0550 0.8900 0.0000
vt 0.0000 0.9450 0.0000
vt 0.0000 0.8900 0.0000
vt 0.1100 1.0000 0.0000
vt 0.0550 1.0000 0.0000
vt 0.0000 1.0000 0.0000
vt 0.0550 0.1100 0.0000
vt 0.0550 0.0550 0.0000
vt 0.1100 0.0550 0.0000
vt 0.0550 0.0000 0.0000
vt 0.1100 0.0000 0.0000
vt 0.0000 0.1100 0.0000
vt 0.0000 0.0550 0.0000
vt 0.0000 0.0000 0.0000
# 36 texture coords

g Box001
s 1
f 1/1/1 2/2/2 3/3/3 
f 3/3/3 4/4/4 1/1/1 
f 5/4/5 6/1/6 7/2/7 
f 7/2/7 8/3/8 5/4/5 
f 9/4/9 10/1/10 11/2/11 
f 11/2/11 12/3/12 9/4/9 
f 13/4/13 14/1/14 15/2/15 
f 15/2/15 16/3/16 13/4/13 
f 17/4/17 18/1/18 19/2/19 
f 19/2/19 20/3/20 17/4/17 
f 21/4/21 22/1/22 23/2/23 
f 23/2/23 24/3/24 21/4/21 
f 4/4/4 25/5/25 26/6/26 
f 26/6/26 27/7/27 4/4/4 
f 27/7/27 26/6/26 28/8/28 
f 28/8/28 29/9/29 27/7/27 
f 25/5/25 30/10/30 31/11/31 
f 31/11/31 26/6/26 25/5/25 
f 26/6/26 31/11/31 32/12/32 
f 32/12/32 28/8/28 26/6/26 
f 1/1/1 33/13/33 34/14/34 
f 34/14/34 35/15/35 1/1/1 
f 35/15/35 34/14/34 36/16/36 
f 36/16/36 37/17/37 35/15/35 
f 33/13/33 38/18/38 39/19/39 
f 39/19/39 34/14/34 33/13/33 
f 34/14/34 39/19/39 40/20/40 
f 40/20/40 36/16/36 34/14/34 
f 2/2/2 41/21/41 42/22/42 
f 42/22/42 43/23/43 2/2/2 
f 43/23/43 42/22/42 44/24/44 
f 44/24/44 45/25/45 43/23/43 
f 41/21/41 46/26/46 47/27/47 
f 47/27/47 42/22/42 41/21/41 
f 42/22/42 47/27/47 48/28/48 
f 48/28/48 44/24/44 42/22/42 
f 3/3/3 49/29/49 50/30/50 
f 50/30/50 51/31/51 3/3/3 
f 51/31/51 50/30/50 52/32/52 
f 52/32/52 53/33/53 51/31/51 
f 49/29/49 54/34/54 55/35/55 
f 55/35/55 50/30/50 49/29/49 
f 50/30/50 55/35/55 56/36/56 
f 56/36/56 52/32/52 50/30/50 
f 8/3/8 57/29/57 58/30/58 
f 58/30/58 59/31/59 8/3/8 
f 59/31/59 58/30/58 60/32/60 
f 60/32/60 61/33/61 59/31/59 
f 57/29/57 62/34/62 63/35/63 
f 63/35/63 58/30/58 57/29/57 
f 58/30/58 63/35/63 64/36/64 
f 64/36/64 60/32/60 58/30/58 
f 5/4/5 65/5/65 66/6/66 
f 66/6/66 67/7/67 5/4/5 
f 67/7/67 66/6/66 68/8/68 
f 68/8/68 69/9/69 67/7/67 
f 65/5/65 70/10/70 71/11/71 
f 71/11/71 66/6/66 65/5/65 
f 66/6/66 71/11/71 72/12/72 
f 72/12/72 68/8/68 66/6/66 
f 6/1/6 73/13/73 74/14/74 
f 74/14/74 75/15/75 6/1/6 
f 75/15/75 74/14/74 76/16/76 
f 76/16/76 77/17/77 75/15/75 
f 73/13/73 78/18/78 79/19/79 
f 79/19/79 74/14/74 73/13/73 
f 74/14/74 79/19/79 80/20/80 
f 80/20/80 76/16/76 74/14/74 
f 7/2/7 81/21/81 82/22/82 
f 82/22/82 83/23/83 7/2/7 
f 83/23/83 82/22/82 84/24/84 
f 84/24/84 85/25/85 83/23/83 
f 81/21/81 86/26/86 87/27/87 
f 87/27/87 82/22/82 81/21/81 
f 82/22/82 87/27/87 88/28/88 
f 88/28/88 84/24/84 82/22/82 
f 12/3/12 89/29/89 90/30/90 
f 90/30/90 91/31/91 12/3/12 
f 91/31/91 90/30/90 31/32/31 
f 31/32/31 30/33/30 91/31/91 
f 89/29/89 92/34/92 93/35/93 
f 93/35/93 90/30/90 89/29/89 
f 90/30/90 93/35/93 32/36/32 
f 32/36/32 31/32/31 90/30/90 
f 9/4/9 94/5/94 95/6/95 
f 95/6/95 96/7/96 9/4/9 
f 96/7/96 95/6/95 97/8/97 
f 97/8/97 98/9/98 96/7/96 
f 94/5/94 53/10/53 52/11/52 
f 52/11/52 95/6/95 94/5/94 
f 95/6/95 52/11/52 56/12/56 
f 56/12/56 97/8/97 95/6/95 
f 10/1/10 99/13/99 100/14/100 
f 100/14/100 101/15/101 10/1/10 
f 101/15/101 100/14/100 71/16/71 
f 71/16/71 70/17/70 101/15/101 
f 99/13/99 102/18/102 103/19/103 
f 103/19/103 100/14/100 99/13/99 
f 100/14/100 103/19/103 72/20/72 
f 72/20/72 71/16/71 100/14/100 
f 11/2/11 104/21/104 105/22/105 
f 105/22/105 106/23/106 11/2/11 
f 106/23/106 105/22/105 107/24/107 
f 107/24/107 108/25/108 106/23/106 
f 104/21/104 61/26/61 60/27/60 
f 60/27/60 105/22/105 104/21/104 
f 105/22/105 60/27/60 64/28/64 
f 64/28/64 107/24/107 105/22/105 
f 16/3/16 109/29/109 110/30/110 
f 110/30/110 111/31/111 16/3/16 
f 111/31/111 110/30/110 55/32/55 
f 55/32/55 54/33/54 111/31/111 
f 109/29/109 98/34/98 97/35/97 
f 97/35/97 110/30/110 109/29/109 
f 110/30/110 97/35/97 56/36/56 
f 56/36/56 55/32/55 110/30/110 
f 13/4/13 112/5/112 113/6/113 
f 113/6/113 114/7/114 13/4/13 
f 114/7/114 113/6/113 115/8/115 
f 115/8/115 116/9/116 114/7/114 
f 112/5/112 45/10/45 44/11/44 
f 44/11/44 113/6/113 112/5/112 
f 113/6/113 44/11/44 48/12/48 
f 48/12/48 115/8/115 113/6/113 
f 14/1/14 117/13/117 118/14/118 
f 118/14/118 119/15/119 14/1/14 
f 119/15/119 118/14/118 79/16/79 
f 79/16/79 78/17/78 119/15/119 
f 117/13/117 120/18/120 121/19/121 
f 121/19/121 118/14/118 117/13/117 
f 118/14/118 121/19/121 80/20/80 
f 80/20/80 79/16/79 118/14/118 
f 15/2/15 122/21/122 123/22/123 
f 123/22/123 124/23/124 15/2/15 
f 124/23/124 123/22/123 103/24/103 
f 103/24/103 102/25/102 124/23/124 
f 122/21/122 69/26/69 68/27/68 
f 68/27/68 123/22/123 122/21/122 
f 123/22/123 68/27/68 72/28/72 
f 72/28/72 103/24/103 123/22/123 
f 20/3/20 125/29/125 126/30/126 
f 126/30/126 127/31/127 20/3/20 
f 127/31/127 126/30/126 47/32/47 
f 47/32/47 46/33/46 127/31/127 
f 125/29/125 116/34/116 115/35/115 
f 115/35/115 126/30/126 125/29/125 
f 126/30/126 115/35/115 48/36/48 
f 48/36/48 47/32/47 126/30/126 
f 17/4/17 128/5/128 129/6/129 
f 129/6/129 130/7/130 17/4/17 
f 130/7/130 129/6/129 131/8/131 
f 131/8/131 132/9/132 130/7/130 
f 128/5/128 37/10/37 36/11/36 
f 36/11/36 129/6/129 128/5/128 
f 129/6/129 36/11/36 40/12/40 
f 40/12/40 131/8/131 129/6/129 
f 18/1/18 133/13/133 134/14/134 
f 134/14/134 135/15/135 18/1/18 
f 135/15/135 134/14/134 87/16/87 
f 87/16/87 86/17/86 135/15/135 
f 133/13/133 136/18/136 137/19/137 
f 137/19/137 134/14/134 133/13/133 
f 134/14/134 137/19/137 88/20/88 
f 88/20/88 87/16/87 134/14/134 
f 19/2/19 138/21/138 139/22/139 
f 139/22/139 140/23/140 19/2/19 
f 140/23/140 139/22/139 121/24/121 
f 121/24/121 120/25/120 140/23/140 
f 138/21/138 77/26/77 76/27/76 
f 76/27/76 139/22/139 138/21/138 
f 139/22/139 76/27/76 80/28/80 
f 80/28/80 121/24/121 139/22/139 
f 24/3/24 141/29/141 142/30/142 
f 142/30/142 143/31/143 24/3/24 
f 143/31/143 142/30/142 39/32/39 
f 39/32/39 38/33/38 143/31/143 
f 141/29/141 132/34/132 131/35/131 
f 131/35/131 142/30/142 141/29/141 
f 142/30/142 131/35/131 40/36/40 
f 40/36/40 39/32/39 142/30/142 
f 21/4/21 144/5/144 145/6/145 
f 145/6/145 146/7/146 21/4/21 
f 146/7/146 145/6/145 93/8/93 
f 93/8/93 92/9/92 146/7/146 
f 144/5/144 29/10/29 28/11/28 
f 28/11/28 145/6/145 144/5/144 
f 145/6/145 28/11/28 32/12/32 
f 32/12/32 93/8/93 145/6/145 
f 22/1/22 147/13/147 148/14/148 
f 148/14/148 149/15/149 22/1/22 
f 149/15/149 148/14/148 63/16/63 
f 63/16/63 62/17/62 149/15/149 
f 147/13/147 108/18/108 107/19/107 
f 107/19/107 148/14/148 147/13/147 
f 148/14/148 107/19/107 64/20/64 
f 64/20/64 63/16/63 148/14/148 
f 23/2/23 150/21/150 151/22/151 
f 151/22/151 152/23/152 23/2/23 
f 152/23/152 151/22/151 137/24/137 
f 137/24/137 136/25/136 152/23/152 
f 150/21/150 85/26/85 84/27/84 
f 84/27/84 151/22/151 150/21/150 
f 151/22/151 84/27/84 88/28/88 
f 88/28/88 137/24/137 151/22/151 
f 1/1/1 4/4/4 27/7/27 
f 27/7/27 33/13/33 1/1/1 
f 33/13/33 27/7/27 29/9/29 
f 29/9/29 38/18/38 33/13/33 
f 2/2/2 1/1/1 35/15/35 
f 35/15/35 41/21/41 2/2/2 
f 41/21/41 35/15/35 37/17/37 
f 37/17/37 46/26/46 41/21/41 
f 3/3/3 2/2/2 43/23/43 
f 43/23/43 49/29/49 3/3/3 
f 49/29/49 43/23/43 45/25/45 
f 45/25/45 54/34/54 49/29/49 
f 4/4/4 3/3/3 51/31/51 
f 51/31/51 25/5/25 4/4/4 
f 25/5/25 51/31/51 53/33/53 
f 53/33/53 30/10/30 25/5/25 
f 5/4/5 8/3/8 59/31/59 
f 59/31/59 65/5/65 5/4/5 
f 65/5/65 59/31/59 61/33/61 
f 61/33/61 70/10/70 65/5/65 
f 6/1/6 5/4/5 67/7/67 
f 67/7/67 73/13/73 6/1/6 
f 73/13/73 67/7/67 69/9/69 
f 69/9/69 78/18/78 73/13/73 
f 7/2/7 6/1/6 75/15/75 
f 75/15/75 81/21/81 7/2/7 
f 81/21/81 75/15/75 77/17/77 
f 77/17/77 86/26/86 81/21/81 
f 8/3/8 7/2/7 83/23/83 
f 83/23/83 57/29/57 8/3/8 
f 57/29/57 83/23/83 85/25/85 
f 85/25/85 62/34/62 57/29/57 
f 9/4/9 12/3/12 91/31/91 
f 91/31/91 94/5/94 9/4/9 
f 94/5/94 91/31/91 30/33/30 
f 30/33/30 53/10/53 94/5/94 
f 10/1/10 9/4/9 96/7/96 
f 96/7/96 99/13/99 10/1/10 
f 99/13/99 96/7/96 98/9/98 
f 98/9/98 102/18/102 99/13/99 
f 11/2/11 10/1/10 101/15/101 
f 101/15/101 104/21/104 11/2/11 
f 104/21/104 101/15/101 70/17/70 
f 70/17/70 61/26/61 104/21/104 
f 12/3/12 11/2/11 106/23/106 
f 106/23/106 89/29/89 12/3/12 
f 89/29/89 106/23/106 108/25/108 
f 108/25/108 92/34/92 89/29/89 
f 13/4/13 16/3/16 111/31/111 
f 111/31/111 112/5/112 13/4/13 
f 112/5/112 111/31/111 54/33/54 
f 54/33/54 45/10/45 112/5/112 
f 14/1/14 13/4/13 114/7/114 
f 114/7/114 117/13/117 14/1/14 
f 117/13/117 114/7/114 116/9/116 
f 116/9/116 120/18/120 117/13/117 
f 15/2/15 14/1/14 119/15/119 
f 119/15/119 122/21/122 15/2/15 
f 122/21/122 119/15/119 78/17/78 
f 78/17/78 69/26/69 122/21/122 
f 16/3/16 15/2/15 124/23/124 
f 124/23/124 109/29/109 16/3/16 
f 109/29/109 124/23/124 102/25/102 
f 102/25/102 98/34/98 109/29/109 
f 17/4/17 20/3/20 127/31/127 
f 127/31/127 128/5/128 17/4/17 
f 128/5/128 127/31/127 46/33/46 
f 46/33/46 37/10/37 128/5/128 
f 18/1/18 17/4/17 130/7/130 
f 130/7/130 133/13/133 18/1/18 
f 133/13/133 130/7/130 132/9/132 
f 132/9/132 136/18/136 133/13/133 
f 19/2/19 18/1/18 135/15/135 
f 135/15/135 138/21/138 19/2/19 
f 138/21/138 135/15/135 86/17/86 
f 86/17/86 77/26/77 138/21/138 
f 20/3/20 19/2/19 140/23/140 
f 140/23/140 125/29/125 20/3/20 
f 125/29/125 140/23/140 120/25/120 
f 120/25/120 116/34/116 125/29/125 
f 21/4/21 24/3/24 143/31/143 
f 143/31/143 144/5/144 21/4/21 
f 144/5/144 143/31/143 38/33/38 
f 38/33/38 29/10/29 144/5/144 
f 22/1/22 21/4/21 146/7/146 
f 146/7/146 147/13/147 22/1/22 
f 147/13/147 146/7/146 92/9/92 
f 92/9/92 108/18/108 147/13/147 
f 23/2/23 22/1/22 149/15/149 
f 149/15/149 150/21/150 23/2/23 
f 150/21/150 149/15/149 62/17/62 
f 62/17/62 85/26/85 150/21/150 
f 24/3/24 23/2/23 152/23/152 
f 152/23/152 141/29/141 24/3/24 
f 141/29/141 152/23/152 136/25/136 
f 136/25/136 132/34/132 141/29/141 
# 300 faces

